<?xml version='1.0' encoding='utf-8'?>
<mxfile host="app.diagrams.net"><diagram name="K8s Security Architecture"><mxGraphModel><root><mxCell id="0" /><mxCell id="1" parent="0" /><mxCell id="1" value="Kubernetes Cluster" style="shape=rectangle;whiteSpace=wrap;html=1;rounded=1;fillColor=#dae8fc;strokeColor=#6c8ebf;" vertex="1" parent="1"><mxGeometry x="400" y="50" width="140" height="60" as_="geometry" /></mxCell><mxCell id="2" value="Applications" style="shape=rectangle;whiteSpace=wrap;html=1;rounded=1;fillColor=#dae8fc;strokeColor=#6c8ebf;" vertex="1" parent="1"><mxGeometry x="200" y="150" width="140" height="60" as_="geometry" /></mxCell><mxCell id="3" value="NVIDIA GPUs" style="shape=rectangle;whiteSpace=wrap;html=1;rounded=1;fillColor=#dae8fc;strokeColor=#6c8ebf;" vertex="1" parent="1"><mxGeometry x="600" y="150" width="140" height="60" as_="geometry" /></mxCell><mxCell id="4" value="RBAC" style="shape=rectangle;whiteSpace=wrap;html=1;rounded=1;fillColor=#dae8fc;strokeColor=#6c8ebf;" vertex="1" parent="1"><mxGeometry x="100" y="250" width="140" height="60" as_="geometry" /></mxCell><mxCell id="5" value="Network Policies" style="shape=rectangle;whiteSpace=wrap;html=1;rounded=1;fillColor=#dae8fc;strokeColor=#6c8ebf;" vertex="1" parent="1"><mxGeometry x="400" y="250" width="140" height="60" as_="geometry" /></mxCell><mxCell id="6" value="Admission Controllers" style="shape=rectangle;whiteSpace=wrap;html=1;rounded=1;fillColor=#dae8fc;strokeColor=#6c8ebf;" vertex="1" parent="1"><mxGeometry x="700" y="250" width="140" height="60" as_="geometry" /></mxCell><mxCell id="7" value="Container Security" style="shape=rectangle;whiteSpace=wrap;html=1;rounded=1;fillColor=#dae8fc;strokeColor=#6c8ebf;" vertex="1" parent="1"><mxGeometry x="100" y="350" width="140" height="60" as_="geometry" /></mxCell><mxCell id="8" value="Monitoring" style="shape=rectangle;whiteSpace=wrap;html=1;rounded=1;fillColor=#dae8fc;strokeColor=#6c8ebf;" vertex="1" parent="1"><mxGeometry x="400" y="350" width="140" height="60" as_="geometry" /></mxCell><mxCell id="9" value="Logging" style="shape=rectangle;whiteSpace=wrap;html=1;rounded=1;fillColor=#dae8fc;strokeColor=#6c8ebf;" vertex="1" parent="1"><mxGeometry x="700" y="350" width="140" height="60" as_="geometry" /></mxCell><mxCell id="100" style="edgeStyle=orthogonalEdgeStyle;rounded=0;" edge="1" parent="1" source="1" target="2"><mxGeometry relative="1" as_="geometry" /></mxCell><mxCell id="101" style="edgeStyle=orthogonalEdgeStyle;rounded=0;" edge="1" parent="1" source="1" target="3"><mxGeometry relative="1" as_="geometry" /></mxCell><mxCell id="102" style="edgeStyle=orthogonalEdgeStyle;rounded=0;" edge="1" parent="1" source="2" target="4"><mxGeometry relative="1" as_="geometry" /></mxCell><mxCell id="103" style="edgeStyle=orthogonalEdgeStyle;rounded=0;" edge="1" parent="1" source="3" target="5"><mxGeometry relative="1" as_="geometry" /></mxCell><mxCell id="104" style="edgeStyle=orthogonalEdgeStyle;rounded=0;" edge="1" parent="1" source="3" target="6"><mxGeometry relative="1" as_="geometry" /></mxCell><mxCell id="105" style="edgeStyle=orthogonalEdgeStyle;rounded=0;" edge="1" parent="1" source="4" target="7"><mxGeometry relative="1" as_="geometry" /></mxCell><mxCell id="106" style="edgeStyle=orthogonalEdgeStyle;rounded=0;" edge="1" parent="1" source="5" target="8"><mxGeometry relative="1" as_="geometry" /></mxCell><mxCell id="107" style="edgeStyle=orthogonalEdgeStyle;rounded=0;" edge="1" parent="1" source="6" target="9"><mxGeometry relative="1" as_="geometry" /></mxCell></root></mxGraphModel></diagram></mxfile>